<svg id="svg" version="1.1" width="500" height="500" xmlns="http://www.w3.org/2000/svg" xmlns:xlink="http://www.w3.org/1999/xlink" style="display: block;"><g id="svgg"><path id="path0" d="M43.400 43.597 C 41.719 45.506,41.974 106.865,43.665 107.514 C 44.361 107.781,48.141 108.000,52.065 108.000 L 59.200 108.000 59.200 200.400 L 59.200 292.800 52.065 292.800 C 48.141 292.800,44.361 293.019,43.665 293.286 C 42.541 293.717,42.400 297.320,42.400 325.670 L 42.400 357.570 44.200 358.007 C 45.190 358.248,59.860 358.345,76.800 358.223 L 107.600 358.000 107.828 349.800 L 108.056 341.600 200.400 341.600 L 292.744 341.600 292.972 349.800 L 293.200 358.000 325.600 358.000 L 358.000 358.000 358.000 325.600 L 358.000 293.200 349.800 292.972 L 341.600 292.744 341.600 200.400 L 341.600 108.056 349.800 107.828 L 358.000 107.600 358.223 76.800 C 358.345 59.860,358.248 45.190,358.007 44.200 L 357.570 42.400 325.670 42.400 C 297.320 42.400,293.717 42.541,293.286 43.665 C 293.019 44.361,292.800 48.141,292.800 52.065 L 292.800 59.200 200.400 59.200 L 108.000 59.200 108.000 52.065 C 108.000 48.141,107.781 44.361,107.514 43.665 C 106.820 41.856,44.991 41.789,43.400 43.597 M82.686 63.600 C 83.346 64.260,84.290 64.800,84.784 64.800 C 85.279 64.800,86.060 65.880,86.520 67.200 C 86.980 68.520,87.681 69.600,88.078 69.600 C 88.475 69.600,88.800 71.940,88.800 74.800 C 88.800 77.733,88.451 80.000,88.000 80.000 C 87.560 80.000,87.200 80.671,87.200 81.491 C 87.200 83.419,83.419 87.200,81.491 87.200 C 80.671 87.200,80.000 87.560,80.000 88.000 C 80.000 88.451,77.733 88.800,74.800 88.800 C 71.940 88.800,69.600 88.475,69.600 88.078 C 69.600 87.681,68.520 86.980,67.200 86.520 C 65.880 86.060,64.800 85.279,64.800 84.784 C 64.800 84.290,64.260 83.346,63.600 82.686 C 62.033 81.119,61.912 70.208,63.445 68.657 C 64.019 68.076,64.728 66.970,65.020 66.200 C 65.311 65.430,65.947 64.800,66.432 64.800 C 66.917 64.800,67.854 64.260,68.514 63.600 C 69.363 62.751,71.435 62.400,75.600 62.400 C 79.765 62.400,81.837 62.751,82.686 63.600 M333.914 64.200 C 334.684 64.970,335.576 65.600,335.896 65.600 C 340.569 65.600,338.681 84.816,333.837 86.568 C 332.386 87.092,331.200 87.809,331.200 88.161 C 331.200 88.512,328.860 88.800,326.000 88.800 C 323.067 88.800,320.800 88.451,320.800 88.000 C 320.800 87.560,320.169 87.200,319.397 87.200 C 312.988 87.200,310.002 67.104,316.123 65.161 C 316.935 64.903,317.600 64.383,317.600 64.005 C 317.600 61.911,331.795 62.080,333.914 64.200 M261.200 92.579 C 241.672 92.858,242.400 92.488,242.400 102.135 L 242.400 109.600 200.400 109.600 L 158.400 109.600 158.400 102.047 C 158.400 92.614,159.709 93.289,140.400 92.767 C 131.600 92.530,158.600 92.341,200.400 92.349 C 242.200 92.356,269.560 92.460,261.200 92.579 M135.337 116.014 C 139.454 120.131,139.411 131.112,135.262 135.262 C 131.151 139.372,120.131 139.454,116.081 135.404 C 111.810 131.133,111.546 120.850,115.596 116.480 C 120.037 111.688,130.758 111.435,135.337 116.014 M281.287 113.633 C 283.873 114.616,287.200 117.996,287.200 119.641 C 287.200 120.279,287.560 120.800,288.000 120.800 C 288.444 120.800,288.800 122.933,288.800 125.600 C 288.800 128.267,288.444 130.400,288.000 130.400 C 287.560 130.400,287.200 131.031,287.200 131.803 C 287.200 138.466,271.531 140.748,265.480 134.965 C 262.216 131.846,261.367 120.118,264.200 117.286 C 264.970 116.516,265.600 115.587,265.600 115.222 C 265.600 113.354,277.407 112.158,281.287 113.633 M94.400 157.618 C 95.060 158.035,98.750 158.381,102.600 158.388 L 109.600 158.400 109.600 200.400 L 109.600 242.400 102.767 242.400 C 92.562 242.400,92.888 241.808,92.600 260.843 C 92.470 269.399,92.357 242.200,92.349 200.400 C 92.341 158.600,92.530 131.704,92.767 140.631 C 93.120 153.854,93.422 157.002,94.400 157.618 M309.600 200.400 C 309.600 250.267,309.328 276.000,308.800 276.000 C 308.295 276.000,307.991 270.316,307.975 260.600 C 307.943 241.652,308.316 242.400,298.912 242.400 L 292.000 242.400 292.000 200.400 L 292.000 158.400 299.172 158.400 C 308.376 158.400,308.000 159.182,308.000 140.053 C 308.000 130.418,308.295 124.800,308.800 124.800 C 309.328 124.800,309.600 150.533,309.600 200.400 M242.400 148.391 C 242.400 157.811,242.975 158.400,252.178 158.400 L 259.200 158.400 259.200 200.400 L 259.200 242.400 252.400 242.400 C 243.143 242.400,242.400 243.143,242.400 252.400 L 242.400 259.200 200.400 259.200 L 158.400 259.200 158.400 252.178 C 158.400 242.975,157.811 242.400,148.391 242.400 L 141.600 242.400 141.600 200.400 L 141.600 158.400 148.743 158.400 C 158.112 158.400,158.400 158.112,158.400 148.743 L 158.400 141.600 200.400 141.600 L 242.400 141.600 242.400 148.391 M135.033 265.551 C 140.752 271.536,138.414 287.200,131.803 287.200 C 131.031 287.200,130.400 287.560,130.400 288.000 C 130.400 288.444,128.267 288.800,125.600 288.800 C 122.933 288.800,120.800 288.444,120.800 288.000 C 120.800 287.560,120.279 287.200,119.641 287.200 C 113.171 287.200,109.933 267.125,116.088 265.172 C 116.920 264.908,117.600 264.381,117.600 264.002 C 117.600 261.073,131.975 262.351,135.033 265.551 M284.717 265.515 C 286.083 266.912,287.200 268.763,287.200 269.628 C 287.200 270.492,287.560 271.200,288.000 271.200 C 288.440 271.200,288.800 273.180,288.800 275.600 C 288.800 278.020,288.512 280.000,288.161 280.000 C 287.809 280.000,287.072 281.243,286.523 282.762 C 285.795 284.774,284.774 285.795,282.762 286.523 C 281.243 287.072,280.000 287.809,280.000 288.161 C 280.000 288.512,278.020 288.800,275.600 288.800 C 273.180 288.800,271.200 288.440,271.200 288.000 C 271.200 287.560,270.492 287.200,269.628 287.200 C 264.504 287.200,259.419 270.990,263.658 268.171 C 264.130 267.857,264.749 266.970,265.033 266.200 C 265.317 265.430,266.101 264.800,266.775 264.800 C 267.449 264.800,268.000 264.465,268.000 264.056 C 268.000 261.147,281.608 262.334,284.717 265.515 M242.400 298.912 C 242.400 308.316,241.652 307.943,260.600 307.975 C 270.316 307.991,276.000 308.295,276.000 308.800 C 276.000 309.328,250.267 309.600,200.400 309.600 C 150.533 309.600,124.800 309.328,124.800 308.800 C 124.800 308.295,130.418 308.000,140.053 308.000 C 159.182 308.000,158.400 308.376,158.400 299.172 L 158.400 292.000 200.400 292.000 L 242.400 292.000 242.400 298.912 M84.727 315.661 C 86.087 316.945,87.200 318.626,87.200 319.397 C 87.200 320.169,87.560 320.800,88.000 320.800 C 88.451 320.800,88.800 323.067,88.800 326.000 C 88.800 328.860,88.512 331.200,88.161 331.200 C 87.809 331.200,87.092 332.386,86.568 333.837 C 84.816 338.681,65.600 340.569,65.600 335.896 C 65.600 335.576,64.970 334.684,64.200 333.914 C 63.083 332.797,62.800 331.118,62.800 325.600 C 62.800 320.082,63.083 318.403,64.200 317.286 C 64.970 316.516,65.600 315.621,65.600 315.297 C 65.600 311.979,81.139 312.275,84.727 315.661 M332.408 313.603 C 340.872 316.821,340.872 334.379,332.408 337.597 C 329.653 338.644,321.504 338.628,318.719 337.569 C 310.147 334.310,310.867 315.618,319.651 313.380 C 322.499 312.655,330.271 312.791,332.408 313.603 " stroke="none" fill="#000000" fill-rule="evenodd"></path><path id="path1" d="M68.514 63.600 C 67.854 64.260,66.917 64.800,66.432 64.800 C 65.947 64.800,65.311 65.430,65.020 66.200 C 64.728 66.970,64.019 68.076,63.445 68.657 C 61.912 70.208,62.033 81.119,63.600 82.686 C 64.260 83.346,64.800 84.290,64.800 84.784 C 64.800 85.279,65.880 86.060,67.200 86.520 C 68.520 86.980,69.600 87.681,69.600 88.078 C 69.600 88.475,71.940 88.800,74.800 88.800 C 77.733 88.800,80.000 88.451,80.000 88.000 C 80.000 87.560,80.671 87.200,81.491 87.200 C 83.419 87.200,87.200 83.419,87.200 81.491 C 87.200 80.671,87.560 80.000,88.000 80.000 C 88.451 80.000,88.800 77.733,88.800 74.800 C 88.800 71.940,88.475 69.600,88.078 69.600 C 87.681 69.600,86.980 68.520,86.520 67.200 C 86.060 65.880,85.279 64.800,84.784 64.800 C 84.290 64.800,83.346 64.260,82.686 63.600 C 81.837 62.751,79.765 62.400,75.600 62.400 C 71.435 62.400,69.363 62.751,68.514 63.600 M319.000 62.913 C 318.230 63.135,317.600 63.627,317.600 64.005 C 317.600 64.383,316.935 64.903,316.123 65.161 C 310.002 67.104,312.988 87.200,319.397 87.200 C 320.169 87.200,320.800 87.560,320.800 88.000 C 320.800 88.451,323.067 88.800,326.000 88.800 C 328.860 88.800,331.200 88.512,331.200 88.161 C 331.200 87.809,332.386 87.092,333.837 86.568 C 338.681 84.816,340.569 65.600,335.896 65.600 C 335.576 65.600,334.684 64.970,333.914 64.200 C 332.515 62.801,322.409 61.929,319.000 62.913 M78.944 68.719 C 83.336 70.495,84.743 77.924,81.333 81.333 C 77.924 84.743,70.495 83.336,68.719 78.944 C 68.154 77.545,67.310 76.136,66.845 75.812 C 66.261 75.406,66.259 75.221,66.839 75.212 C 67.301 75.206,68.128 73.957,68.677 72.438 C 69.405 70.426,70.426 69.405,72.438 68.677 C 73.957 68.128,75.206 67.301,75.212 66.839 C 75.221 66.259,75.406 66.261,75.812 66.845 C 76.136 67.310,77.545 68.154,78.944 68.719 M326.400 67.122 C 326.400 67.519,327.480 68.220,328.800 68.680 C 330.120 69.140,331.200 69.870,331.200 70.301 C 331.200 70.733,331.785 71.671,332.500 72.386 C 333.215 73.101,333.800 74.547,333.800 75.600 C 333.800 76.653,333.215 78.099,332.500 78.814 C 331.785 79.529,331.200 80.444,331.200 80.846 C 331.200 82.458,325.655 83.988,323.373 83.007 C 315.806 79.754,315.575 70.727,323.000 68.445 C 323.990 68.141,324.800 67.556,324.800 67.146 C 324.800 66.736,325.160 66.400,325.600 66.400 C 326.040 66.400,326.400 66.725,326.400 67.122 M119.378 113.584 C 112.191 116.663,110.241 129.564,116.081 135.404 C 120.131 139.454,131.151 139.372,135.262 135.262 C 139.411 131.112,139.454 120.131,135.337 116.014 C 132.452 113.129,123.590 111.780,119.378 113.584 M268.600 113.762 C 266.950 114.200,265.600 114.857,265.600 115.222 C 265.600 115.587,264.970 116.516,264.200 117.286 C 261.367 120.118,262.216 131.846,265.480 134.965 C 271.531 140.748,287.200 138.466,287.200 131.803 C 287.200 131.031,287.560 130.400,288.000 130.400 C 288.444 130.400,288.800 128.267,288.800 125.600 C 288.800 122.933,288.444 120.800,288.000 120.800 C 287.560 120.800,287.200 120.279,287.200 119.641 C 287.200 114.501,277.438 111.415,268.600 113.762 M128.901 118.158 C 129.616 118.365,130.696 119.494,131.301 120.667 C 131.905 121.840,132.850 123.276,133.400 123.857 C 134.672 125.202,134.662 126.021,133.355 127.343 C 132.781 127.924,132.069 129.038,131.773 129.818 C 131.478 130.598,130.598 131.478,129.818 131.773 C 129.038 132.069,127.924 132.781,127.343 133.355 C 126.021 134.662,125.202 134.672,123.857 133.400 C 123.276 132.850,121.880 131.927,120.756 131.348 C 118.222 130.044,116.531 125.998,117.648 123.911 C 119.609 120.247,124.491 116.566,126.400 117.312 C 127.060 117.570,128.185 117.951,128.901 118.158 M280.069 119.961 C 283.937 123.801,284.449 131.200,280.846 131.200 C 280.444 131.200,279.529 131.785,278.814 132.500 C 277.385 133.929,273.713 134.252,272.909 133.020 C 272.629 132.591,271.590 131.813,270.600 131.292 C 269.610 130.770,268.800 129.842,268.800 129.229 C 268.800 128.616,268.234 127.549,267.543 126.857 C 266.400 125.714,266.400 125.486,267.543 124.343 C 268.234 123.651,268.800 122.651,268.800 122.121 C 268.800 120.933,271.537 118.521,273.869 117.654 C 276.047 116.844,277.457 117.369,280.069 119.961 M119.400 262.918 C 118.410 263.134,117.600 263.622,117.600 264.002 C 117.600 264.381,116.920 264.908,116.088 265.172 C 109.933 267.125,113.171 287.200,119.641 287.200 C 120.279 287.200,120.800 287.560,120.800 288.000 C 120.800 288.444,122.933 288.800,125.600 288.800 C 128.267 288.800,130.400 288.444,130.400 288.000 C 130.400 287.560,131.031 287.200,131.803 287.200 C 138.414 287.200,140.752 271.536,135.033 265.551 C 132.501 262.901,125.149 261.663,119.400 262.918 M269.800 262.918 C 268.810 263.134,268.000 263.646,268.000 264.056 C 268.000 264.465,267.449 264.800,266.775 264.800 C 266.101 264.800,265.317 265.430,265.033 266.200 C 264.749 266.970,264.130 267.857,263.658 268.171 C 259.419 270.990,264.504 287.200,269.628 287.200 C 270.492 287.200,271.200 287.560,271.200 288.000 C 271.200 288.440,273.180 288.800,275.600 288.800 C 278.020 288.800,280.000 288.512,280.000 288.161 C 280.000 287.809,281.243 287.072,282.762 286.523 C 284.774 285.795,285.795 284.774,286.523 282.762 C 287.072 281.243,287.809 280.000,288.161 280.000 C 288.512 280.000,288.800 278.020,288.800 275.600 C 288.800 273.180,288.440 271.200,288.000 271.200 C 287.560 271.200,287.200 270.492,287.200 269.628 C 287.200 264.729,277.908 261.146,269.800 262.918 M126.400 267.122 C 126.400 267.519,127.480 268.220,128.800 268.680 C 130.120 269.140,131.200 269.870,131.200 270.301 C 131.200 270.733,131.785 271.671,132.500 272.386 C 133.215 273.101,133.800 274.547,133.800 275.600 C 133.800 276.653,133.215 278.099,132.500 278.814 C 131.785 279.529,131.200 280.444,131.200 280.846 C 131.200 282.372,125.569 284.040,123.735 283.058 C 116.070 278.956,115.653 270.653,123.000 268.436 C 123.990 268.137,124.800 267.556,124.800 267.146 C 124.800 266.736,125.160 266.400,125.600 266.400 C 126.040 266.400,126.400 266.725,126.400 267.122 M278.931 268.714 C 283.951 270.743,284.711 276.355,280.533 280.533 C 276.355 284.711,270.743 283.951,268.714 278.931 C 268.151 277.539,267.310 276.136,266.845 275.812 C 266.261 275.406,266.259 275.221,266.839 275.212 C 267.301 275.206,268.128 273.957,268.677 272.438 C 269.405 270.426,270.426 269.405,272.438 268.677 C 273.957 268.128,275.206 267.301,275.212 266.839 C 275.221 266.259,275.406 266.261,275.812 266.845 C 276.136 267.310,277.539 268.151,278.931 268.714 M67.800 313.792 C 66.590 314.296,65.600 314.974,65.600 315.297 C 65.600 315.621,64.970 316.516,64.200 317.286 C 63.083 318.403,62.800 320.082,62.800 325.600 C 62.800 331.118,63.083 332.797,64.200 333.914 C 64.970 334.684,65.600 335.576,65.600 335.896 C 65.600 340.569,84.816 338.681,86.568 333.837 C 87.092 332.386,87.809 331.200,88.161 331.200 C 88.512 331.200,88.800 328.860,88.800 326.000 C 88.800 323.067,88.451 320.800,88.000 320.800 C 87.560 320.800,87.200 320.169,87.200 319.397 C 87.200 314.551,74.666 310.929,67.800 313.792 M319.651 313.380 C 310.867 315.618,310.147 334.310,318.719 337.569 C 329.769 341.771,338.400 336.522,338.400 325.600 C 338.400 314.811,331.553 310.349,319.651 313.380 M80.657 319.788 C 83.951 323.073,84.086 331.200,80.846 331.200 C 80.444 331.200,79.529 331.785,78.814 332.500 C 77.385 333.929,73.713 334.252,72.909 333.020 C 72.629 332.591,71.590 331.813,70.600 331.292 C 69.610 330.770,68.800 329.842,68.800 329.229 C 68.800 328.616,68.234 327.549,67.543 326.857 C 66.400 325.714,66.400 325.486,67.543 324.343 C 68.234 323.651,68.800 322.651,68.800 322.121 C 68.800 320.934,71.535 318.523,73.869 317.651 C 75.875 316.901,78.633 317.770,80.657 319.788 M328.901 318.158 C 329.616 318.365,330.696 319.494,331.301 320.667 C 331.905 321.840,332.850 323.276,333.400 323.857 C 334.672 325.202,334.662 326.021,333.355 327.343 C 332.781 327.924,332.069 329.038,331.773 329.818 C 331.478 330.598,330.598 331.478,329.818 331.773 C 329.038 332.069,327.924 332.781,327.343 333.355 C 326.021 334.662,325.202 334.672,323.857 333.400 C 323.276 332.850,321.880 331.927,320.756 331.348 C 314.334 328.044,319.639 314.882,326.400 317.344 C 327.060 317.585,328.185 317.951,328.901 318.158 " stroke="none" fill="#565656" fill-rule="evenodd"></path><path id="path2" d="M75.212 66.839 C 75.206 67.301,73.957 68.128,72.438 68.677 C 70.426 69.405,69.405 70.426,68.677 72.438 C 68.128 73.957,67.301 75.206,66.839 75.212 C 66.259 75.221,66.261 75.406,66.845 75.812 C 67.310 76.136,68.154 77.545,68.719 78.944 C 70.495 83.336,77.924 84.743,81.333 81.333 C 84.743 77.924,83.336 70.495,78.944 68.719 C 77.545 68.154,76.136 67.310,75.812 66.845 C 75.406 66.261,75.221 66.259,75.212 66.839 M324.800 67.146 C 324.800 67.556,323.990 68.141,323.000 68.445 C 315.575 70.727,315.806 79.754,323.373 83.007 C 325.655 83.988,331.200 82.458,331.200 80.846 C 331.200 80.444,331.785 79.529,332.500 78.814 C 333.215 78.099,333.800 76.653,333.800 75.600 C 333.800 74.547,333.215 73.101,332.500 72.386 C 331.785 71.671,331.200 70.733,331.200 70.301 C 331.200 69.870,330.120 69.140,328.800 68.680 C 327.480 68.220,326.400 67.519,326.400 67.122 C 326.400 66.725,326.040 66.400,325.600 66.400 C 325.160 66.400,324.800 66.736,324.800 67.146 M76.802 70.200 C 76.804 70.530,77.883 71.520,79.200 72.400 C 82.271 74.451,82.217 75.543,78.880 78.880 C 75.543 82.217,74.451 82.271,72.400 79.200 C 71.520 77.883,70.530 76.804,70.200 76.802 C 68.886 76.797,69.719 74.373,71.800 72.145 C 73.839 69.963,76.797 68.812,76.802 70.200 M328.715 71.921 C 331.810 74.812,331.822 75.912,328.793 79.081 C 325.819 82.193,325.333 82.200,322.373 79.172 C 317.220 73.901,323.342 66.902,328.715 71.921 M123.792 117.666 C 116.905 121.690,115.376 128.580,120.756 131.348 C 121.880 131.927,123.276 132.850,123.857 133.400 C 125.202 134.672,126.021 134.662,127.343 133.355 C 127.924 132.781,129.038 132.069,129.818 131.773 C 130.598 131.478,131.478 130.598,131.773 129.818 C 132.069 129.038,132.781 127.924,133.355 127.343 C 134.662 126.021,134.672 125.202,133.400 123.857 C 132.850 123.276,131.905 121.840,131.301 120.667 C 130.696 119.494,129.616 118.365,128.901 118.158 C 128.185 117.951,127.060 117.570,126.400 117.312 C 125.740 117.054,124.567 117.213,123.792 117.666 M273.869 117.654 C 271.537 118.521,268.800 120.933,268.800 122.121 C 268.800 122.651,268.234 123.651,267.543 124.343 C 266.400 125.486,266.400 125.714,267.543 126.857 C 268.234 127.549,268.800 128.616,268.800 129.229 C 268.800 129.842,269.610 130.770,270.600 131.292 C 271.590 131.813,272.629 132.591,272.909 133.020 C 273.713 134.252,277.385 133.929,278.814 132.500 C 279.529 131.785,280.444 131.200,280.846 131.200 C 282.372 131.200,284.040 125.569,283.058 123.735 C 280.683 119.297,276.642 116.623,273.869 117.654 M129.003 122.328 C 131.766 125.256,131.750 125.973,128.862 128.862 C 125.973 131.750,125.256 131.766,122.328 129.003 C 119.450 126.286,119.404 124.815,122.109 122.109 C 124.815 119.404,126.286 119.450,129.003 122.328 M279.172 122.373 C 282.200 125.333,282.193 125.819,279.081 128.793 C 275.912 131.822,274.812 131.810,271.921 128.715 C 269.079 125.674,269.077 125.561,271.778 122.482 C 274.498 119.383,276.090 119.360,279.172 122.373 M124.800 267.146 C 124.800 267.556,123.990 268.137,123.000 268.436 C 115.653 270.653,116.070 278.956,123.735 283.058 C 125.569 284.040,131.200 282.372,131.200 280.846 C 131.200 280.444,131.785 279.529,132.500 278.814 C 133.215 278.099,133.800 276.653,133.800 275.600 C 133.800 274.547,133.215 273.101,132.500 272.386 C 131.785 271.671,131.200 270.733,131.200 270.301 C 131.200 269.870,130.120 269.140,128.800 268.680 C 127.480 268.220,126.400 267.519,126.400 267.122 C 126.400 266.725,126.040 266.400,125.600 266.400 C 125.160 266.400,124.800 266.736,124.800 267.146 M275.212 266.839 C 275.206 267.301,273.957 268.128,272.438 268.677 C 270.426 269.405,269.405 270.426,268.677 272.438 C 268.128 273.957,267.301 275.206,266.839 275.212 C 266.259 275.221,266.261 275.406,266.845 275.812 C 267.310 276.136,268.151 277.539,268.714 278.931 C 270.743 283.951,276.355 284.711,280.533 280.533 C 284.711 276.355,283.951 270.743,278.931 268.714 C 277.539 268.151,276.136 267.310,275.812 266.845 C 275.406 266.261,275.221 266.259,275.212 266.839 M128.715 271.921 C 131.810 274.812,131.822 275.912,128.793 279.081 C 125.819 282.193,125.333 282.200,122.373 279.172 C 117.220 273.901,123.342 266.902,128.715 271.921 M276.802 270.200 C 276.804 270.530,277.883 271.520,279.200 272.400 C 282.271 274.451,282.217 275.543,278.880 278.880 C 275.543 282.217,274.451 282.271,272.400 279.200 C 271.520 277.883,270.530 276.804,270.200 276.802 C 268.886 276.797,269.719 274.373,271.800 272.145 C 273.839 269.963,276.797 268.812,276.802 270.200 M73.869 317.651 C 71.535 318.523,68.800 320.934,68.800 322.121 C 68.800 322.651,68.234 323.651,67.543 324.343 C 66.400 325.486,66.400 325.714,67.543 326.857 C 68.234 327.549,68.800 328.616,68.800 329.229 C 68.800 329.842,69.610 330.770,70.600 331.292 C 71.590 331.813,72.629 332.591,72.909 333.020 C 73.713 334.252,77.385 333.929,78.814 332.500 C 79.529 331.785,80.444 331.200,80.846 331.200 C 82.458 331.200,83.988 325.655,83.007 323.373 C 81.148 319.049,77.030 316.470,73.869 317.651 M323.206 317.854 C 316.737 320.925,315.349 328.566,320.756 331.348 C 321.880 331.927,323.276 332.850,323.857 333.400 C 325.202 334.672,326.021 334.662,327.343 333.355 C 327.924 332.781,329.038 332.069,329.818 331.773 C 330.598 331.478,331.478 330.598,331.773 329.818 C 332.069 329.038,332.781 327.924,333.355 327.343 C 334.662 326.021,334.672 325.202,333.400 323.857 C 332.850 323.276,331.905 321.840,331.301 320.667 C 330.696 319.494,329.616 318.365,328.901 318.158 C 328.185 317.951,327.060 317.585,326.400 317.344 C 325.740 317.104,324.303 317.333,323.206 317.854 M79.172 322.373 C 82.200 325.333,82.193 325.819,79.081 328.793 C 75.912 331.822,74.812 331.810,71.921 328.715 C 69.079 325.674,69.077 325.561,71.778 322.482 C 74.498 319.383,76.090 319.360,79.172 322.373 M329.003 322.328 C 331.766 325.256,331.750 325.973,328.862 328.862 C 325.973 331.750,325.256 331.766,322.328 329.003 C 319.450 326.286,319.404 324.815,322.109 322.109 C 324.815 319.404,326.286 319.450,329.003 322.328 " stroke="none" fill="#848484" fill-rule="evenodd"></path><path id="path3" d="M71.800 72.145 C 69.719 74.373,68.886 76.797,70.200 76.802 C 70.530 76.804,71.520 77.883,72.400 79.200 C 74.451 82.271,75.543 82.217,78.880 78.880 C 82.217 75.543,82.271 74.451,79.200 72.400 C 77.883 71.520,76.804 70.530,76.802 70.200 C 76.797 68.812,73.839 69.963,71.800 72.145 M322.200 71.916 C 319.392 74.652,319.428 76.160,322.373 79.172 C 325.333 82.200,325.819 82.193,328.793 79.081 C 331.822 75.912,331.810 74.812,328.715 71.921 C 325.734 69.136,325.053 69.136,322.200 71.916 M77.965 73.076 C 79.045 73.866,79.295 74.712,78.906 76.263 C 78.207 79.049,74.631 80.093,73.076 77.965 C 70.171 73.993,73.993 70.171,77.965 73.076 M328.040 73.248 C 329.392 74.877,328.132 78.676,326.111 79.065 C 324.586 79.359,321.600 76.748,321.600 75.122 C 321.600 72.540,326.314 71.168,328.040 73.248 M122.109 122.109 C 119.404 124.815,119.450 126.286,122.328 129.003 C 125.256 131.766,125.973 131.750,128.862 128.862 C 131.750 125.973,131.766 125.256,129.003 122.328 C 126.286 119.450,124.815 119.404,122.109 122.109 M271.778 122.482 C 269.077 125.561,269.079 125.674,271.921 128.715 C 274.812 131.810,275.912 131.822,279.081 128.793 C 282.193 125.819,282.200 125.333,279.172 122.373 C 276.090 119.360,274.498 119.383,271.778 122.482 M127.971 123.546 C 129.908 127.166,127.166 129.908,123.546 127.971 C 121.244 126.739,121.084 125.365,123.000 123.267 C 124.938 121.144,126.740 121.245,127.971 123.546 M277.591 122.978 C 279.764 124.839,279.619 127.044,277.251 128.122 C 273.535 129.816,270.921 127.111,272.829 123.546 C 274.058 121.249,275.387 121.091,277.591 122.978 M122.200 271.916 C 119.392 274.652,119.428 276.160,122.373 279.172 C 125.333 282.200,125.819 282.193,128.793 279.081 C 131.822 275.912,131.810 274.812,128.715 271.921 C 125.734 269.136,125.053 269.136,122.200 271.916 M271.800 272.145 C 269.719 274.373,268.886 276.797,270.200 276.802 C 270.530 276.804,271.520 277.883,272.400 279.200 C 274.451 282.271,275.543 282.217,278.880 278.880 C 282.217 275.543,282.271 274.451,279.200 272.400 C 277.883 271.520,276.804 270.530,276.802 270.200 C 276.797 268.812,273.839 269.963,271.800 272.145 M128.040 273.248 C 129.392 274.877,128.132 278.676,126.111 279.065 C 124.586 279.359,121.600 276.748,121.600 275.122 C 121.600 272.540,126.314 271.168,128.040 273.248 M277.965 273.076 C 279.045 273.866,279.295 274.712,278.906 276.263 C 278.207 279.049,274.631 280.093,273.076 277.965 C 270.171 273.993,273.993 270.171,277.965 273.076 M71.778 322.482 C 69.077 325.561,69.079 325.674,71.921 328.715 C 74.812 331.810,75.912 331.822,79.081 328.793 C 82.193 325.819,82.200 325.333,79.172 322.373 C 76.090 319.360,74.498 319.383,71.778 322.482 M322.109 322.109 C 319.404 324.815,319.450 326.286,322.328 329.003 C 325.256 331.766,325.973 331.750,328.862 328.862 C 331.750 325.973,331.766 325.256,329.003 322.328 C 326.286 319.450,324.815 319.404,322.109 322.109 M77.591 322.978 C 79.764 324.839,79.619 327.044,77.251 328.122 C 73.535 329.816,70.921 327.111,72.829 323.546 C 74.058 321.249,75.387 321.091,77.591 322.978 M327.971 323.546 C 329.148 325.746,328.650 327.801,326.764 328.524 C 325.174 329.135,321.600 327.294,321.600 325.865 C 321.600 322.330,326.388 320.588,327.971 323.546 " stroke="none" fill="#a1a1a1" fill-rule="evenodd"></path><path id="path4" d="M72.960 72.960 C 70.542 75.378,72.962 79.734,76.263 78.906 C 79.049 78.207,80.093 74.631,77.965 73.076 C 76.143 71.743,74.221 71.699,72.960 72.960 M323.000 73.114 C 321.198 74.481,321.231 75.671,323.127 77.706 C 325.099 79.822,327.366 79.357,328.321 76.640 C 329.640 72.891,326.251 70.646,323.000 73.114 M123.000 123.267 C 121.084 125.365,121.244 126.739,123.546 127.971 C 127.166 129.908,129.908 127.166,127.971 123.546 C 126.740 121.245,124.938 121.144,123.000 123.267 M272.829 123.546 C 270.921 127.111,273.535 129.816,277.251 128.122 C 279.619 127.044,279.764 124.839,277.591 122.978 C 275.387 121.091,274.058 121.249,272.829 123.546 M123.000 273.114 C 121.198 274.481,121.231 275.671,123.127 277.706 C 125.099 279.822,127.366 279.357,128.321 276.640 C 129.640 272.891,126.251 270.646,123.000 273.114 M272.960 272.960 C 270.542 275.378,272.962 279.734,276.263 278.906 C 279.049 278.207,280.093 274.631,277.965 273.076 C 276.143 271.743,274.221 271.699,272.960 272.960 M72.829 323.546 C 70.921 327.111,73.535 329.816,77.251 328.122 C 79.619 327.044,79.764 324.839,77.591 322.978 C 75.387 321.091,74.058 321.249,72.829 323.546 M323.000 323.267 C 321.084 325.365,321.244 326.739,323.546 327.971 C 325.746 329.148,327.801 328.650,328.524 326.764 C 329.921 323.125,325.617 320.401,323.000 323.267 " stroke="none" fill="#bebebe" fill-rule="evenodd"></path></g></svg>